<?xml version="1.0" encoding="UTF-8"?>
<svg xmlns="http://www.w3.org/2000/svg" viewBox="0 0 32 32">
  <defs>
    <linearGradient id="brandGradient" x1="0%" y1="0%" x2="100%" y2="0%">
      <stop offset="0%" style="stop-color:#D01C1F" /> <stop offset="100%" style="stop-color:#00A651" /> </linearGradient>
  </defs>
  
  <path d="M22.5,6.5c-1.8-1.7-4.2-2.7-6.8-2.7s-5,1-6.8,2.7c-1.8,1.7-2.9,4.1-2.9,6.7s1.1,5,2.9,6.7c1.5,1.5,3.5,2.4,5.6,2.6l-1.8,2.2h3.5l2.2-2.7c3.3-0.5,5.9-3.2,6.7-6.5c0.3-0.8,0.4-1.6,0.4-2.4S24.2,8.2,22.5,6.5z M15.7,20.1c-4,0-7.2-3.1-7.2-6.9s3.2-6.9,7.2-6.9s7.2,3.1,7.2,6.9S19.7,20.1,15.7,20.1z" fill="#0D3566"/>

  <path d="M4,26.5 c6,-2 18,-2 24,0" stroke="url(#brandGradient)" stroke-width="2.5" fill="none" stroke-linecap="round"/>
</svg>