<?xml version="1.0" encoding="UTF-8"?>
<svg id="Layer_1" xmlns="http://www.w3.org/2000/svg" viewBox="0 0 16 16">
  <defs>
    <style>
      .cls-1 {
        fill: #003366; /* Deep Cobalt Core */
        stroke-width: 0px;
      }
      .cls-2 {
        fill: none;
        stroke: #00CCFF; /* Brilliant Cyan Trace */
        stroke-linecap: round;
        stroke-linejoin: round;
        stroke-width: 1.5px;
      }
      .cls-3 {
        fill: #9933FF; /* Electric Purple Accent */
        stroke-width: 0px;
      }
    </style>
  </defs>
  <path class="cls-1" d="M12.75,3.25c-1.25-1.25-2.92-2-4.75-2s-3.5,0.75-4.75,2S1.25,6.17,1.25,8s0.75,3.5,2,4.75s2.92,2,4.75,2s3.5-0.75,4.75-2s2-2.92,2-4.75s-0.75-3.5-2-4.75Z"/>
  <path class="cls-2" d="M6,6.5c-0.5,1-1.5,1.5-2.5,1.5s-2-0.5-2.5-1.5"/>
  <path class="cls-2" d="M10,6.5c0.5,1,1.5,1.5,2.5,1.5s2-0.5,2.5-1.5"/>
  <path class="cls-2" d="M8,11.5c-1,1.5-2,2.5-3.5,2.5s-3-1-3.5-2.5"/>
  <path class="cls-2" d="M11.5,11.5c1,1.5,2,2.5,3.5,2.5s3-1,3.5-2.5"/>
  <circle class="cls-3" cx="8" cy="11.5" r="1"/>
</svg>